<svg xmlns="http://www.w3.org/2000/svg" version="1.1" xmlns:xlink="http://www.w3.org/1999/xlink" xmlns:svgjs="http://svgjs.dev/svgjs" width="1000" height="1000" viewBox="0 0 1000 1000"><rect width="1000" height="1000" fill="#000000"></rect><g transform="matrix(0.7,0,0,0.7,150.3067673728907,308.55)"><svg viewBox="0 0 365 200" data-background-color="#ffffff" preserveAspectRatio="xMidYMid meet" height="547" width="1000" xmlns="http://www.w3.org/2000/svg" xmlns:xlink="http://www.w3.org/1999/xlink"><g id="tight-bounds" transform="matrix(1,0,0,1,-0.15995727300730778,0)"><svg viewBox="0 0 365.3199145460146 200" height="200" width="365.3199145460146"><g><svg viewBox="0 0 411.70815643043943 225.39595572941693" height="200" width="365.3199145460146"><g><rect width="5.580530438260489" height="225.39595572941693" x="158.57070661398458" y="0" fill="#ffffff" opacity="1" stroke-width="0" stroke="transparent" fill-opacity="1" class="rect-r$-0" data-fill-palette-color="primary" rx="1%" id="r$-0" data-palette-color="#fce44d"></rect></g><g transform="matrix(1,0,0,1,178.75995547701075,0.5606864570383436)"><svg viewBox="0 0 232.94820095342865 224.27458281534024" height="224.27458281534024" width="232.94820095342865"><g id="textblocktransform"><svg viewBox="0 0 232.94820095342865 224.27458281534024" height="224.27458281534024" width="232.94820095342865" id="textblock"><g><svg viewBox="0 0 232.94820095342865 198.764" height="198.764" width="232.94820095342865"><g transform="matrix(1,0,0,1,0,0)"><svg width="232.94820095342865" viewBox="0.6499999999999998 -36.5 161.4 133.35000000000002" height="198.764" data-palette-color="#fce44d"><svg></svg><svg></svg><svg></svg><g class="wordmark-text-0" data-fill-palette-color="primary" id="text-0"><path d="M37.5-2.1l-6.5 5.4c-1.033 0.867-2.35 1.527-3.95 1.98-1.6 0.447-3.483 0.67-5.65 0.67v0h-16.85c-0.8 0-1.383-0.183-1.75-0.55-0.367-0.367-0.55-0.95-0.55-1.75v0-32.4c0-0.433 0.06-0.8 0.18-1.1 0.113-0.3 0.287-0.55 0.52-0.75v0l6.45-5.45c0.167-0.133 0.393-0.243 0.68-0.33 0.28-0.08 0.587-0.12 0.92-0.12v0h16.85c4.367 0 7.59 0.883 9.67 2.65 2.087 1.767 3.13 4.45 3.13 8.05v0 15.6c0 1.8-0.267 3.373-0.8 4.72-0.533 1.353-1.317 2.48-2.35 3.38zM11 0h16.85c4.167 0 7.26-0.833 9.28-2.5 2.013-1.667 3.02-4.233 3.02-7.7v0-15.6c0-3.467-1.007-6.033-3.02-7.7-2.02-1.667-5.113-2.5-9.28-2.5v0h-16.85c-0.633 0-1.09 0.14-1.37 0.42-0.287 0.287-0.43 0.747-0.43 1.38v0 32.4c0 0.633 0.143 1.09 0.43 1.37 0.28 0.287 0.737 0.43 1.37 0.43zM26.75-4.5h-12.1v-27h12.1c1.7 0 3.077 0.183 4.13 0.55 1.047 0.367 1.853 0.857 2.42 1.47 0.567 0.62 0.95 1.353 1.15 2.2 0.2 0.853 0.3 1.763 0.3 2.73v0 13.25c0 0.967-0.09 1.867-0.27 2.7-0.187 0.833-0.563 1.55-1.13 2.15-0.567 0.6-1.383 1.073-2.45 1.42-1.067 0.353-2.45 0.53-4.15 0.53zM26.75-31v0h-11.6v26h11.6c1.6 0 2.893-0.16 3.88-0.48 0.98-0.313 1.737-0.747 2.27-1.3 0.533-0.547 0.893-1.213 1.08-2 0.18-0.78 0.27-1.62 0.27-2.52v0-13.25c0-0.9-0.1-1.75-0.3-2.55-0.2-0.8-0.567-1.483-1.1-2.05-0.533-0.567-1.29-1.017-2.27-1.35-0.987-0.333-2.263-0.5-3.83-0.5zM20.55-9.45v-17h5.95c0.8 0 1.393 0.19 1.78 0.57 0.38 0.387 0.57 0.997 0.57 1.83v0 12.15c0 0.833-0.19 1.45-0.57 1.85-0.387 0.4-0.98 0.6-1.78 0.6v0zM21.9-9.95v-8.65c0-0.433-0.067-0.8-0.2-1.1-0.133-0.3-0.35-0.517-0.65-0.65v0 10.4zM67.35 5.95v0h-21.3c-0.8 0-1.383-0.183-1.75-0.55-0.367-0.367-0.55-0.95-0.55-1.75v0-5.95c0-0.433 0.06-0.8 0.18-1.1 0.113-0.3 0.287-0.55 0.52-0.75v0l6.05-5.1v-11.15h-4.45c-0.8 0-1.383-0.183-1.75-0.55-0.367-0.367-0.55-0.95-0.55-1.75v0-6.05c0-0.433 0.06-0.8 0.18-1.1 0.113-0.3 0.287-0.55 0.52-0.75v0l6.45-5.45c0.167-0.133 0.393-0.243 0.68-0.33 0.28-0.08 0.587-0.12 0.92-0.12v0h21.3c0.8 0 1.383 0.183 1.75 0.55 0.367 0.367 0.55 0.95 0.55 1.75v0 6.05c0 0.433-0.057 0.8-0.17 1.1-0.12 0.3-0.297 0.55-0.53 0.75v0l-5.95 5v11.25h4.35c0.8 0 1.383 0.183 1.75 0.55 0.367 0.367 0.55 0.95 0.55 1.75v0 5.95c0 0.433-0.057 0.8-0.17 1.1-0.12 0.3-0.297 0.55-0.53 0.75v0l-6.5 5.4c-0.133 0.133-0.34 0.25-0.62 0.35-0.287 0.1-0.597 0.15-0.93 0.15zM52.5 0v0h21.3c0.633 0 1.093-0.143 1.38-0.43 0.28-0.28 0.42-0.737 0.42-1.37v0-5.95c0-0.633-0.14-1.093-0.42-1.38-0.287-0.28-0.747-0.42-1.38-0.42v0h-4.85v-16.8h4.85c0.633 0 1.093-0.143 1.38-0.43 0.28-0.28 0.42-0.737 0.42-1.37v0-6.05c0-0.633-0.14-1.093-0.42-1.38-0.287-0.28-0.747-0.42-1.38-0.42v0h-21.3c-0.633 0-1.09 0.14-1.37 0.42-0.287 0.287-0.43 0.747-0.43 1.38v0 6.05c0 0.633 0.143 1.09 0.43 1.37 0.28 0.287 0.737 0.43 1.37 0.43v0h4.95v16.8h-4.95c-0.633 0-1.09 0.14-1.37 0.42-0.287 0.287-0.43 0.747-0.43 1.38v0 5.95c0 0.633 0.143 1.09 0.43 1.37 0.28 0.287 0.737 0.43 1.37 0.43zM71.1-5v0.5h-15.9v-0.5h7.75v-26h-7.75v-0.5h15.9v0.5h-7.65v26zM93.35-31.1v0l18.4 20.7v-21.1h0.5v27h-0.5v-5.15l-18.9-21.2c-0.033-0.033-0.073-0.067-0.12-0.1-0.053-0.033-0.097-0.05-0.13-0.05v0c-0.033 0-0.057 0.017-0.07 0.05-0.02 0.033-0.03 0.067-0.03 0.1v0 26.35h-0.5v-26.45c0-0.2 0.067-0.35 0.2-0.45 0.133-0.1 0.267-0.15 0.4-0.15v0c0.133 0 0.25 0.033 0.35 0.1 0.1 0.067 0.233 0.183 0.4 0.35zM88.55 0h7.5c0.633 0 1.093-0.143 1.38-0.43 0.28-0.28 0.42-0.737 0.42-1.37v0-16.5l8.55 10.35v6.15c0 0.633 0.143 1.09 0.43 1.37 0.28 0.287 0.737 0.43 1.37 0.43v0h7.5c0.633 0 1.093-0.143 1.38-0.43 0.28-0.28 0.42-0.737 0.42-1.37v0-32.4c0-0.633-0.14-1.093-0.42-1.38-0.287-0.28-0.747-0.42-1.38-0.42v0h-7.5c-0.633 0-1.09 0.14-1.37 0.42-0.287 0.287-0.43 0.747-0.43 1.38v0 10.65l-9.7-11.1c-0.433-0.5-0.873-0.85-1.32-1.05-0.453-0.2-0.997-0.3-1.63-0.3v0h-5.2c-0.633 0-1.09 0.14-1.37 0.42-0.287 0.287-0.43 0.747-0.43 1.38v0 32.4c0 0.633 0.143 1.09 0.43 1.37 0.28 0.287 0.737 0.43 1.37 0.43zM97.65 0.05v0l-6.5 5.4c-0.133 0.133-0.34 0.25-0.62 0.35-0.287 0.1-0.597 0.15-0.93 0.15v0h-7.5c-0.8 0-1.383-0.183-1.75-0.55-0.367-0.367-0.55-0.95-0.55-1.75v0-32.4c0-0.433 0.06-0.8 0.18-1.1 0.113-0.3 0.287-0.55 0.52-0.75v0l6.45-5.45c0.167-0.133 0.393-0.243 0.68-0.33 0.28-0.08 0.587-0.12 0.92-0.12v0h5.2c0.733 0 1.35 0.117 1.85 0.35 0.5 0.233 1 0.617 1.5 1.15v0l3.45 4 6.05-5.05c0.167-0.133 0.393-0.243 0.68-0.33 0.28-0.08 0.587-0.12 0.92-0.12v0h7.5c0.8 0 1.383 0.183 1.75 0.55 0.367 0.367 0.55 0.95 0.55 1.75v0 32.4c0 0.433-0.057 0.8-0.17 1.1-0.12 0.3-0.297 0.55-0.53 0.75v0l-6.5 5.4c-0.133 0.133-0.34 0.25-0.62 0.35-0.287 0.1-0.597 0.15-0.93 0.15v0h-7.5c-0.8 0-1.383-0.183-1.75-0.55-0.367-0.367-0.55-0.95-0.55-1.75v0-5.95l-1.1-1.35v1.85c0 0.433-0.057 0.8-0.17 1.1-0.12 0.3-0.297 0.55-0.53 0.75zM147.95 5.95v0h-23.2c-0.8 0-1.383-0.183-1.75-0.55-0.367-0.367-0.55-0.95-0.55-1.75v0-32.4c0-0.433 0.06-0.8 0.18-1.1 0.113-0.3 0.287-0.55 0.52-0.75v0l6.45-5.45c0.167-0.133 0.393-0.243 0.68-0.33 0.28-0.08 0.587-0.12 0.92-0.12v0h23.2c0.8 0 1.383 0.183 1.75 0.55 0.367 0.367 0.55 0.95 0.55 1.75v0 5.85c0 0.433-0.057 0.8-0.17 1.1-0.12 0.3-0.297 0.55-0.53 0.75v0l-4.3 3.55c0.333 0.167 0.577 0.417 0.73 0.75 0.147 0.333 0.22 0.767 0.22 1.3v0 5.35c0 0.433-0.057 0.8-0.17 1.1-0.12 0.3-0.297 0.55-0.53 0.75v0l-4.45 3.75h6.9c0.8 0 1.383 0.183 1.75 0.55 0.367 0.367 0.55 0.95 0.55 1.75v0 5.85c0 0.433-0.057 0.8-0.17 1.1-0.12 0.3-0.297 0.55-0.53 0.75v0l-6.5 5.4c-0.133 0.133-0.34 0.25-0.62 0.35-0.287 0.1-0.597 0.15-0.93 0.15zM131.2 0h23.2c0.633 0 1.093-0.143 1.38-0.43 0.28-0.28 0.42-0.737 0.42-1.37v0-5.85c0-0.633-0.14-1.093-0.42-1.38-0.287-0.28-0.747-0.42-1.38-0.42v0h-13.8v-4.3h9.75c0.633 0 1.093-0.143 1.38-0.43 0.28-0.28 0.42-0.737 0.42-1.37v0-5.35c0-0.633-0.14-1.093-0.42-1.38-0.287-0.28-0.747-0.42-1.38-0.42v0h-9.75v-3.85h13.8c0.633 0 1.093-0.143 1.38-0.43 0.28-0.28 0.42-0.737 0.42-1.37v0-5.85c0-0.633-0.14-1.093-0.42-1.38-0.287-0.28-0.747-0.42-1.38-0.42v0h-23.2c-0.633 0-1.09 0.14-1.37 0.42-0.287 0.287-0.43 0.747-0.43 1.38v0 32.4c0 0.633 0.143 1.09 0.43 1.37 0.28 0.287 0.737 0.43 1.37 0.43zM135.35-5h16.35v0.5h-16.85v-27h16.85v0.5h-16.35v12.55h12.3v0.5h-12.3z" fill="#ffffff" fill-rule="nonzero" stroke="none" stroke-width="1" stroke-linecap="butt" stroke-linejoin="miter" stroke-miterlimit="10" stroke-dasharray="" stroke-dashoffset="0" font-family="none" font-weight="none" font-size="none" text-anchor="none" style="mix-blend-mode: normal" data-fill-palette-color="primary" opacity="1"></path><path transform="translate(0,45.45)" d="M24.5 5.95h-13.9c-1.633 0-3.067-0.273-4.3-0.82-1.233-0.553-2.267-1.297-3.1-2.23-0.833-0.933-1.467-2.027-1.9-3.28-0.433-1.247-0.65-2.57-0.65-3.97v0-3c0-1.533 0.243-2.85 0.73-3.95 0.48-1.1 1.137-2 1.97-2.7v0l2.2-1.8c-0.567-0.567-0.967-1.25-1.2-2.05-0.233-0.8-0.35-1.683-0.35-2.65v0-2.4c0-1.2 0.2-2.317 0.6-3.35 0.4-1.033 1.05-1.917 1.95-2.65v0l6.4-5.4c0.833-0.7 1.883-1.243 3.15-1.63 1.267-0.38 2.75-0.57 4.45-0.57v0h10.55c0.8 0 1.383 0.183 1.75 0.55 0.367 0.367 0.55 0.95 0.55 1.75v0 5.75c0 0.433-0.057 0.8-0.17 1.1-0.12 0.3-0.297 0.55-0.53 0.75v0l-5.95 4.95c0.033 0.133 0.06 0.273 0.08 0.42 0.013 0.153 0.02 0.297 0.02 0.43v0 3.15l2.9-2.45c0.167-0.133 0.393-0.243 0.68-0.33 0.28-0.08 0.587-0.12 0.92-0.12v0h9.7c0.8 0 1.383 0.173 1.75 0.52 0.367 0.353 0.55 0.947 0.55 1.78v0 5.4c0 0.433-0.057 0.8-0.17 1.1-0.12 0.3-0.297 0.55-0.53 0.75v0l-2.25 1.9v0.3c0 1.533-0.257 2.917-0.77 4.15-0.52 1.233-1.263 2.267-2.23 3.1v0l-6.45 5.45c-0.767 0.633-1.69 1.133-2.77 1.5-1.087 0.367-2.313 0.55-3.68 0.55zM27.65-9.35h-7.1c-0.8 0-1.317-0.15-1.55-0.45-0.233-0.3-0.35-0.65-0.35-1.05v0-1.55c0-0.4 0.117-0.743 0.35-1.03 0.233-0.28 0.75-0.42 1.55-0.42v0h4c0.633 0 1.093-0.143 1.38-0.43 0.28-0.28 0.42-0.737 0.42-1.37v0-5.15c0-0.633-0.14-1.093-0.42-1.38-0.287-0.28-0.747-0.42-1.38-0.42v0h-0.75c-0.8 0-1.317-0.15-1.55-0.45-0.233-0.3-0.35-0.65-0.35-1.05v0-1.05c0-0.4 0.117-0.75 0.35-1.05 0.233-0.3 0.75-0.45 1.55-0.45v0h7.3c0.633 0 1.093-0.143 1.38-0.43 0.28-0.28 0.42-0.737 0.42-1.37v0-5.75c0-0.633-0.14-1.093-0.42-1.38-0.287-0.28-0.747-0.42-1.38-0.42v0h-10.55c-3.367 0-5.807 0.723-7.32 2.17-1.52 1.453-2.28 3.28-2.28 5.48v0 2.4c0 1.267 0.217 2.367 0.65 3.3 0.433 0.933 1.2 1.633 2.3 2.1v0c-1.8 0.167-3.3 0.917-4.5 2.25-1.2 1.333-1.8 3.167-1.8 5.5v0 4c0 2.667 0.81 4.8 2.43 6.4 1.613 1.6 3.953 2.4 7.02 2.4v0h13.9c2.9 0 5.117-0.8 6.65-2.4 1.533-1.6 2.3-3.733 2.3-6.4v0-2.25h1.15c0.633 0 1.093-0.143 1.38-0.43 0.28-0.28 0.42-0.737 0.42-1.37v0-5.4c0-0.633-0.14-1.093-0.42-1.38-0.287-0.28-0.747-0.42-1.38-0.42v0h-9.7c-0.633 0-1.09 0.14-1.37 0.42-0.287 0.287-0.43 0.747-0.43 1.38v0 6.9c0 0.667-0.133 1.167-0.4 1.5-0.267 0.333-0.767 0.5-1.5 0.5zM30.3-4.5h-12.05c-1.967 0-3.433-0.443-4.4-1.33-0.967-0.88-1.45-2.237-1.45-4.07v0-3.05c0-1.633 0.5-2.983 1.5-4.05 1-1.067 2.533-1.6 4.6-1.6v0h0.35c-0.867-0.333-1.517-0.9-1.95-1.7-0.433-0.8-0.65-1.85-0.65-3.15v0-2.8c0-1.833 0.483-3.167 1.45-4 0.967-0.833 2.45-1.25 4.45-1.25v0h6.25v0.5h-6.25c-1.867 0-3.233 0.383-4.1 1.15-0.867 0.767-1.3 2-1.3 3.7v0 2.7c0 1.633 0.377 2.84 1.13 3.62 0.747 0.787 1.903 1.18 3.47 1.18v0h0.5v0.5h-3.35c-1.9 0-3.307 0.49-4.22 1.47-0.92 0.987-1.38 2.23-1.38 3.73v0 3.05c0 1.7 0.45 2.94 1.35 3.72 0.9 0.787 2.333 1.18 4.3 1.18v0h11.75c1.333 0 2.36-0.343 3.08-1.03 0.713-0.68 1.07-1.687 1.07-3.02v0-6.75h3.75v0.5h-3.25v6.25c0 1.533-0.407 2.673-1.22 3.42-0.82 0.753-1.963 1.13-3.43 1.13zM21.4-9.85h1.2v-1z" fill="#ffffff" fill-rule="nonzero" stroke="none" stroke-width="1" stroke-linecap="butt" stroke-linejoin="miter" stroke-miterlimit="10" stroke-dasharray="" stroke-dashoffset="0" font-family="none" font-weight="none" font-size="none" text-anchor="none" style="mix-blend-mode: normal" data-fill-palette-color="primary" opacity="1"></path><path transform="translate(0,90.9)" d="M37.5-2.1l-6.5 5.4c-1.033 0.867-2.35 1.527-3.95 1.98-1.6 0.447-3.483 0.67-5.65 0.67v0h-16.85c-0.8 0-1.383-0.183-1.75-0.55-0.367-0.367-0.55-0.95-0.55-1.75v0-32.4c0-0.433 0.06-0.8 0.18-1.1 0.113-0.3 0.287-0.55 0.52-0.75v0l6.45-5.45c0.167-0.133 0.393-0.243 0.68-0.33 0.28-0.08 0.587-0.12 0.92-0.12v0h16.85c4.367 0 7.59 0.883 9.67 2.65 2.087 1.767 3.13 4.45 3.13 8.05v0 15.6c0 1.8-0.267 3.373-0.8 4.72-0.533 1.353-1.317 2.48-2.35 3.38zM11 0h16.85c4.167 0 7.26-0.833 9.28-2.5 2.013-1.667 3.02-4.233 3.02-7.7v0-15.6c0-3.467-1.007-6.033-3.02-7.7-2.02-1.667-5.113-2.5-9.28-2.5v0h-16.85c-0.633 0-1.09 0.14-1.37 0.42-0.287 0.287-0.43 0.747-0.43 1.38v0 32.4c0 0.633 0.143 1.09 0.43 1.37 0.28 0.287 0.737 0.43 1.37 0.43zM26.75-4.5h-12.1v-27h12.1c1.7 0 3.077 0.183 4.13 0.55 1.047 0.367 1.853 0.857 2.42 1.47 0.567 0.62 0.95 1.353 1.15 2.2 0.2 0.853 0.3 1.763 0.3 2.73v0 13.25c0 0.967-0.09 1.867-0.27 2.7-0.187 0.833-0.563 1.55-1.13 2.15-0.567 0.6-1.383 1.073-2.45 1.42-1.067 0.353-2.45 0.53-4.15 0.53zM26.75-31v0h-11.6v26h11.6c1.6 0 2.893-0.16 3.88-0.48 0.98-0.313 1.737-0.747 2.27-1.3 0.533-0.547 0.893-1.213 1.08-2 0.18-0.78 0.27-1.62 0.27-2.52v0-13.25c0-0.9-0.1-1.75-0.3-2.55-0.2-0.8-0.567-1.483-1.1-2.05-0.533-0.567-1.29-1.017-2.27-1.35-0.987-0.333-2.263-0.5-3.83-0.5zM20.55-9.45v-17h5.95c0.8 0 1.393 0.19 1.78 0.57 0.38 0.387 0.57 0.997 0.57 1.83v0 12.15c0 0.833-0.19 1.45-0.57 1.85-0.387 0.4-0.98 0.6-1.78 0.6v0zM21.9-9.95v-8.65c0-0.433-0.067-0.8-0.2-1.1-0.133-0.3-0.35-0.517-0.65-0.65v0 10.4zM56.55-15.15v0 1.55h19.5v-1.55c0-0.9-0.073-1.733-0.22-2.5-0.153-0.767-0.347-1.483-0.58-2.15v0l-3.45-8.15c-0.367-0.867-0.75-1.593-1.15-2.18-0.4-0.58-1.067-0.87-2-0.87v0h-4.9c-1 0-1.7 0.29-2.1 0.87-0.4 0.587-0.767 1.297-1.1 2.13v0l-3.2 8.2c-0.233 0.667-0.423 1.383-0.57 2.15-0.153 0.767-0.23 1.6-0.23 2.5zM62.2-17.9l2.35-7.6c0.133-0.3 0.277-0.517 0.43-0.65 0.147-0.133 0.32-0.2 0.52-0.2v0h1.25c0.2 0 0.377 0.067 0.53 0.2 0.147 0.133 0.287 0.35 0.42 0.65v0l2.35 7.6zM76.55-4.5h-0.5v-8.6h-19.5v8.6h-0.5v-10.65c0-0.933 0.077-1.793 0.23-2.58 0.147-0.78 0.353-1.537 0.62-2.27v0l3.2-8.2c0.367-0.933 0.783-1.717 1.25-2.35 0.467-0.633 1.267-0.95 2.4-0.95v0h4.9c1.1 0 1.877 0.317 2.33 0.95 0.447 0.633 0.87 1.433 1.27 2.4v0l3.45 8.15c0.267 0.733 0.477 1.49 0.63 2.27 0.147 0.787 0.22 1.647 0.22 2.58v0zM61.7-1.8v0-7h8.85v7c0 0.633 0.16 1.09 0.48 1.37 0.313 0.287 0.803 0.43 1.47 0.43v0h7.55c0.633 0 1.093-0.143 1.38-0.43 0.28-0.28 0.42-0.737 0.42-1.37v0-13.2c0-1-0.157-2.15-0.47-3.45-0.32-1.3-0.813-2.817-1.48-4.55v0l-4.35-11.35c-0.2-0.567-0.507-0.983-0.92-1.25-0.42-0.267-0.947-0.4-1.58-0.4v0h-13.45c-0.667 0-1.207 0.133-1.62 0.4-0.42 0.267-0.73 0.683-0.93 1.25v0l-4.35 11.35c-0.667 1.733-1.157 3.25-1.47 4.55-0.32 1.3-0.48 2.45-0.48 3.45v0 13.2c0 0.633 0.143 1.09 0.43 1.37 0.28 0.287 0.737 0.43 1.37 0.43v0h7.35c0.633 0 1.093-0.143 1.38-0.43 0.28-0.28 0.42-0.737 0.42-1.37zM61.5 0.05l-6.5 5.4c-0.133 0.133-0.34 0.25-0.62 0.35-0.287 0.1-0.597 0.15-0.93 0.15v0h-7.35c-0.8 0-1.383-0.183-1.75-0.55-0.367-0.367-0.55-0.95-0.55-1.75v0-13.2c0-1.033 0.16-2.21 0.48-3.53 0.313-1.313 0.82-2.87 1.52-4.67v0l4.3-11.3c0.1-0.3 0.227-0.56 0.38-0.78 0.147-0.213 0.303-0.403 0.47-0.57v0l0.05-0.05 6.4-5.35c0.267-0.233 0.583-0.41 0.95-0.53 0.367-0.113 0.783-0.17 1.25-0.17v0h13.45c0.767 0 1.393 0.16 1.88 0.48 0.48 0.313 0.837 0.803 1.07 1.47v0l4.35 11.35c0.7 1.8 1.21 3.357 1.53 4.67 0.313 1.32 0.47 2.497 0.47 3.53v0 13.2c0 0.433-0.057 0.8-0.17 1.1-0.12 0.3-0.297 0.55-0.53 0.75v0l-6.5 5.4c-0.133 0.133-0.34 0.25-0.62 0.35-0.287 0.1-0.597 0.15-0.93 0.15v0h-7.55c-0.833 0-1.45-0.19-1.85-0.57-0.4-0.387-0.6-0.963-0.6-1.73v0-6.5h-1.4v1.05c0 0.433-0.057 0.8-0.17 1.1-0.12 0.3-0.297 0.55-0.53 0.75zM103.25 5.95h-15.8c-0.8 0-1.383-0.183-1.75-0.55-0.367-0.367-0.55-0.95-0.55-1.75v0-5.85c0-0.433 0.06-0.8 0.18-1.1 0.113-0.3 0.287-0.55 0.52-0.75v0l5-4.2c-1.767-0.533-3.157-1.443-4.17-2.73-1.02-1.28-1.53-3.12-1.53-5.52v0-5.25c0-1.5 0.25-2.833 0.75-4 0.5-1.167 1.217-2.15 2.15-2.95v0l6.5-5.45c0.9-0.733 2.017-1.31 3.35-1.73 1.333-0.413 2.85-0.62 4.55-0.62v0h14c0.8 0 1.383 0.183 1.75 0.55 0.367 0.367 0.55 0.95 0.55 1.75v0 5.95c0 0.433-0.057 0.8-0.17 1.1-0.12 0.3-0.297 0.55-0.53 0.75v0l-4.5 3.75c2.1 0.467 3.793 1.34 5.08 2.62 1.28 1.287 1.92 3.28 1.92 5.98v0 5.25c0 1.5-0.25 2.833-0.75 4-0.5 1.167-1.233 2.15-2.2 2.95v0l-6.45 5.4c-0.933 0.767-2.067 1.36-3.4 1.78-1.333 0.413-2.833 0.62-4.5 0.62zM93.9 0h15.8c3.2 0 5.727-0.757 7.58-2.27 1.847-1.52 2.77-3.697 2.77-6.53v0-5.25c0-2.8-0.717-4.8-2.15-6-1.433-1.2-3.317-1.967-5.65-2.3v0l-7.45-1c-0.433-0.033-0.767-0.2-1-0.5-0.233-0.3-0.35-0.667-0.35-1.1v0c0-0.433 0.117-0.793 0.35-1.08 0.233-0.28 0.567-0.42 1-0.42v0h11.65c0.633 0 1.093-0.143 1.38-0.43 0.28-0.28 0.42-0.737 0.42-1.37v0-5.95c0-0.633-0.14-1.093-0.42-1.38-0.287-0.28-0.747-0.42-1.38-0.42v0h-14c-3.233 0-5.767 0.757-7.6 2.27-1.833 1.52-2.75 3.697-2.75 6.53v0 5.25c0 2.8 0.71 4.8 2.13 6 1.413 1.2 3.287 1.967 5.62 2.3v0l7.5 1.05c0.433 0.033 0.76 0.183 0.98 0.45 0.213 0.267 0.32 0.683 0.32 1.25v0c0 0.4-0.107 0.74-0.32 1.02-0.22 0.287-0.547 0.43-0.98 0.43v0h-13.45c-0.633 0-1.09 0.14-1.37 0.42-0.287 0.287-0.43 0.747-0.43 1.38v0 5.85c0 0.633 0.143 1.09 0.43 1.37 0.28 0.287 0.737 0.43 1.37 0.43zM102.65-31.5h11.1v0.5h-11.1c-1.4 0-2.517 0.383-3.35 1.15-0.833 0.767-1.25 1.733-1.25 2.9v0 4.1c0 1.167 0.233 1.983 0.7 2.45 0.467 0.467 1.083 0.767 1.85 0.9v0l10.55 2.15c1 0.2 1.827 0.633 2.48 1.3 0.647 0.667 0.97 1.867 0.97 3.6v0 2.9c0 1.467-0.5 2.673-1.5 3.62-1 0.953-2.35 1.43-4.05 1.43v0h-12.45v-0.5h12.45c1.533 0 2.76-0.427 3.68-1.28 0.913-0.847 1.37-1.937 1.37-3.27v0-2.9c0-1.567-0.273-2.643-0.82-3.23-0.553-0.58-1.297-0.97-2.23-1.17v0l-10.55-2.15c-0.867-0.167-1.573-0.51-2.12-1.03-0.553-0.513-0.83-1.453-0.83-2.82v0-4.1c0-1.333 0.467-2.427 1.4-3.28 0.933-0.847 2.167-1.27 3.7-1.27zM136.4-4.5h-0.5v-27h0.5v13.25h19.2v-13.25h0.5v27h-0.5v-13.25h-19.2zM132.3 0h7.75c0.633 0 1.093-0.143 1.38-0.43 0.28-0.28 0.42-0.737 0.42-1.37v0-11.1h8.35v11.1c0 0.633 0.143 1.09 0.43 1.37 0.28 0.287 0.737 0.43 1.37 0.43v0h7.75c0.633 0 1.093-0.143 1.38-0.43 0.28-0.28 0.42-0.737 0.42-1.37v0-32.4c0-0.633-0.14-1.093-0.42-1.38-0.287-0.28-0.747-0.42-1.38-0.42v0h-7.75c-0.633 0-1.09 0.14-1.37 0.42-0.287 0.287-0.43 0.747-0.43 1.38v0 10.85h-8.35v-10.85c0-0.633-0.14-1.093-0.42-1.38-0.287-0.28-0.747-0.42-1.38-0.42v0h-7.75c-0.633 0-1.09 0.14-1.37 0.42-0.287 0.287-0.43 0.747-0.43 1.38v0 32.4c0 0.633 0.143 1.09 0.43 1.37 0.28 0.287 0.737 0.43 1.37 0.43zM141.65 0.05v0l-6.5 5.4c-0.133 0.133-0.34 0.25-0.62 0.35-0.287 0.1-0.597 0.15-0.93 0.15v0h-7.75c-0.8 0-1.383-0.183-1.75-0.55-0.367-0.367-0.55-0.95-0.55-1.75v0-32.4c0-0.433 0.06-0.8 0.18-1.1 0.113-0.3 0.287-0.55 0.52-0.75v0l6.45-5.45c0.167-0.133 0.393-0.243 0.68-0.33 0.28-0.08 0.587-0.12 0.92-0.12v0h7.75c0.8 0 1.383 0.183 1.75 0.55 0.367 0.367 0.55 0.95 0.55 1.75v0 10.35h0.9v-4.9c0-0.433 0.06-0.8 0.18-1.1 0.113-0.3 0.287-0.55 0.52-0.75v0l6.45-5.45c0.167-0.133 0.393-0.243 0.68-0.33 0.28-0.08 0.587-0.12 0.92-0.12v0h7.75c0.8 0 1.383 0.183 1.75 0.55 0.367 0.367 0.55 0.95 0.55 1.75v0 32.4c0 0.433-0.057 0.8-0.17 1.1-0.12 0.3-0.297 0.55-0.53 0.75v0l-6.5 5.4c-0.133 0.133-0.34 0.25-0.62 0.35-0.287 0.1-0.597 0.15-0.93 0.15v0h-7.75c-0.8 0-1.383-0.183-1.75-0.55-0.367-0.367-0.55-0.95-0.55-1.75v0-10.6h-0.9v5.15c0 0.433-0.057 0.8-0.17 1.1-0.12 0.3-0.297 0.55-0.53 0.75z" fill="#ffffff" fill-rule="nonzero" stroke="none" stroke-width="1" stroke-linecap="butt" stroke-linejoin="miter" stroke-miterlimit="10" stroke-dasharray="" stroke-dashoffset="0" font-family="none" font-weight="none" font-size="none" text-anchor="none" style="mix-blend-mode: normal" data-fill-palette-color="primary" opacity="1"></path></g></svg></g></svg></g><g transform="matrix(1,0,0,1,0,213.37271842476568)"><svg viewBox="0 0 136.76388877975793 10.901864390574566" height="10.901864390574566" width="136.76388877975793"><g transform="matrix(1,0,0,1,0,0)"><svg width="136.76388877975793" viewBox="1.25 -40.5 627.21 50" height="10.901864390574566" data-palette-color="#f3a83c"><path d="M9.4 0.4L9.4 0.4Q5.85 0.4 3.7-1.83 1.55-4.05 1.25-7.7L1.25-7.7 5.7-9.05Q6.1-6.3 7.05-4.93 8-3.55 9.85-3.55L9.85-3.55Q11.3-3.55 12.05-4.38 12.8-5.2 12.8-6.6L12.8-6.6Q12.8-7.85 12.25-8.85 11.7-9.85 10.45-10.9L10.45-10.9 5.5-15.15Q4-16.45 2.98-18.05 1.95-19.65 1.95-22.2L1.95-22.2Q1.95-24.5 2.88-26.08 3.8-27.65 5.48-28.48 7.15-29.3 9.4-29.3L9.4-29.3Q12.85-29.3 14.68-27.08 16.5-24.85 16.75-21.7L16.75-21.7 13.15-20.35Q12.95-21.85 12.55-22.98 12.15-24.1 11.45-24.73 10.75-25.35 9.6-25.35L9.6-25.35Q8.3-25.35 7.53-24.48 6.75-23.6 6.75-22.4L6.75-22.4Q6.75-21.65 7.08-20.93 7.4-20.2 8.2-19.5L8.2-19.5 13.3-14.8Q14.35-13.85 15.28-12.75 16.2-11.65 16.8-10.25 17.4-8.85 17.4-7L17.4-7Q17.4-4.55 16.4-2.9 15.4-1.25 13.6-0.43 11.8 0.4 9.4 0.4ZM26.75 9.5L21.4 9.5 21.4-28.9 26.75-28.9 26.75-26.6Q27.7-27.7 29.05-28.5 30.4-29.3 32.25-29.3L32.25-29.3Q34.5-29.3 35.82-28.13 37.15-26.95 37.8-25.18 38.45-23.4 38.65-21.58 38.85-19.75 38.85-18.45L38.85-18.45 38.85-11.45Q38.85-8.4 38.25-5.68 37.65-2.95 36.07-1.28 34.5 0.4 31.65 0.4L31.65 0.4Q30.1 0.4 28.9-0.38 27.7-1.15 26.75-2.15L26.75-2.15 26.75 9.5ZM30.6-3.8L30.6-3.8Q32-3.8 32.6-4.83 33.2-5.85 33.35-7.6 33.5-9.35 33.5-11.45L33.5-11.45 33.5-18.45Q33.5-20.25 33.3-21.78 33.1-23.3 32.45-24.2 31.8-25.1 30.4-25.1L30.4-25.1Q29.35-25.1 28.4-24.65 27.45-24.2 26.75-23.6L26.75-23.6 26.75-5.1Q27.5-4.55 28.45-4.17 29.4-3.8 30.6-3.8ZM51.7 0.4L51.7 0.4Q48.3 0.4 46.45-0.93 44.6-2.25 43.87-4.83 43.15-7.4 43.15-11.15L43.15-11.15 43.15-17.75Q43.15-21.6 43.9-24.15 44.65-26.7 46.52-28 48.4-29.3 51.7-29.3L51.7-29.3Q55.35-29.3 57.07-27.8 58.8-26.3 59.35-23.48 59.9-20.65 59.9-16.7L59.9-16.7 59.9-14.35 48.5-14.35 48.5-8.55Q48.5-6.8 48.82-5.7 49.15-4.6 49.87-4.08 50.6-3.55 51.75-3.55L51.75-3.55Q52.95-3.55 53.57-4.13 54.2-4.7 54.42-5.78 54.65-6.85 54.65-8.3L54.65-8.3 54.65-10.05 59.85-10.05 59.85-8.95Q59.85-4.6 58-2.1 56.15 0.4 51.7 0.4ZM48.5-18.8L48.5-17.25 54.65-17.25 54.65-19.85Q54.65-21.65 54.45-22.88 54.25-24.1 53.62-24.73 53-25.35 51.65-25.35L51.65-25.35Q50.35-25.35 49.67-24.75 49-24.15 48.75-22.73 48.5-21.3 48.5-18.8L48.5-18.8ZM72.74 0.4L72.74 0.4Q69.34 0.4 67.49-0.93 65.64-2.25 64.92-4.83 64.19-7.4 64.19-11.15L64.19-11.15 64.19-17.75Q64.19-21.6 64.94-24.15 65.69-26.7 67.57-28 69.44-29.3 72.74-29.3L72.74-29.3Q76.39-29.3 78.12-27.8 79.84-26.3 80.39-23.48 80.94-20.65 80.94-16.7L80.94-16.7 80.94-14.35 69.54-14.35 69.54-8.55Q69.54-6.8 69.87-5.7 70.19-4.6 70.92-4.08 71.64-3.55 72.79-3.55L72.79-3.55Q73.99-3.55 74.62-4.13 75.24-4.7 75.47-5.78 75.69-6.85 75.69-8.3L75.69-8.3 75.69-10.05 80.89-10.05 80.89-8.95Q80.89-4.6 79.04-2.1 77.19 0.4 72.74 0.4ZM69.54-18.8L69.54-17.25 75.69-17.25 75.69-19.85Q75.69-21.65 75.49-22.88 75.29-24.1 74.67-24.73 74.04-25.35 72.69-25.35L72.69-25.35Q71.39-25.35 70.72-24.75 70.04-24.15 69.79-22.73 69.54-21.3 69.54-18.8L69.54-18.8ZM92.49 0.4L92.49 0.4Q88.84 0.4 87.04-2.27 85.24-4.95 85.24-11.35L85.24-11.35 85.24-16.95Q85.24-20.25 85.79-23.08 86.34-25.9 87.87-27.6 89.39-29.3 92.34-29.3L92.34-29.3Q93.79-29.3 94.99-28.65 96.19-28 97.14-27.05L97.14-27.05 97.14-40.5 102.49-40.5 102.49 0 97.14 0 97.14-1.85Q96.19-0.85 95.06-0.23 93.94 0.4 92.49 0.4ZM93.84-3.8L93.84-3.8Q94.59-3.8 95.44-4.08 96.29-4.35 97.14-4.9L97.14-4.9 97.14-23.85Q96.44-24.35 95.59-24.73 94.74-25.1 93.74-25.1L93.74-25.1Q91.89-25.1 91.24-23.33 90.59-21.55 90.59-19.05L90.59-19.05 90.59-10.9Q90.59-8.9 90.81-7.28 91.04-5.65 91.74-4.73 92.44-3.8 93.84-3.8ZM127.29 0.4L127.29 0.4Q124.09 0.4 122.23-0.9 120.39-2.2 119.61-4.6 118.84-7 118.84-10.25L118.84-10.25 118.84-18.65Q118.84-21.9 119.61-24.3 120.39-26.7 122.23-28 124.09-29.3 127.29-29.3L127.29-29.3Q130.49-29.3 132.31-28 134.13-26.7 134.91-24.3 135.69-21.9 135.69-18.65L135.69-18.65 135.69-10.25Q135.69-7 134.91-4.6 134.13-2.2 132.31-0.9 130.49 0.4 127.29 0.4ZM127.29-3.55L127.29-3.55Q128.84-3.55 129.46-4.45 130.09-5.35 130.21-6.83 130.34-8.3 130.34-9.9L130.34-9.9 130.34-18.95Q130.34-20.6 130.21-22.05 130.09-23.5 129.46-24.43 128.84-25.35 127.29-25.35L127.29-25.35Q125.73-25.35 125.09-24.43 124.44-23.5 124.31-22.05 124.19-20.6 124.19-18.95L124.19-18.95 124.19-9.9Q124.19-8.3 124.31-6.83 124.44-5.35 125.09-4.45 125.73-3.55 127.29-3.55ZM147.63 0L142.28 0 142.28-24.95 138.83-24.95 138.83-28.9 142.28-28.9 142.28-30.4Q142.28-33.1 142.71-35.02 143.13-36.95 144.48-38 145.83-39.05 148.53-39.05L148.53-39.05Q149.53-39.05 150.31-38.98 151.08-38.9 152.03-38.7L152.03-38.7 152.03-34.8Q151.58-34.9 151.03-34.98 150.48-35.05 150.03-35.05L150.03-35.05Q148.48-35.05 148.06-34.02 147.63-33 147.63-31.3L147.63-31.3 147.63-28.9 152.03-28.9 152.03-24.95 147.63-24.95 147.63 0ZM173.08 0.4L173.08 0.4Q169.43 0.4 167.63-2.27 165.83-4.95 165.83-11.35L165.83-11.35 165.83-16.95Q165.83-20.25 166.38-23.08 166.93-25.9 168.45-27.6 169.98-29.3 172.93-29.3L172.93-29.3Q174.38-29.3 175.58-28.65 176.78-28 177.73-27.05L177.73-27.05 177.73-40.5 183.08-40.5 183.08 0 177.73 0 177.73-1.85Q176.78-0.85 175.65-0.23 174.53 0.4 173.08 0.4ZM174.43-3.8L174.43-3.8Q175.18-3.8 176.03-4.08 176.88-4.35 177.73-4.9L177.73-4.9 177.73-23.85Q177.03-24.35 176.18-24.73 175.33-25.1 174.33-25.1L174.33-25.1Q172.48-25.1 171.83-23.33 171.18-21.55 171.18-19.05L171.18-19.05 171.18-10.9Q171.18-8.9 171.4-7.28 171.63-5.65 172.33-4.73 173.03-3.8 174.43-3.8ZM196.47 0.4L196.47 0.4Q193.07 0.4 191.22-0.93 189.37-2.25 188.65-4.83 187.92-7.4 187.92-11.15L187.92-11.15 187.92-17.75Q187.92-21.6 188.67-24.15 189.42-26.7 191.3-28 193.17-29.3 196.47-29.3L196.47-29.3Q200.12-29.3 201.85-27.8 203.57-26.3 204.12-23.48 204.67-20.65 204.67-16.7L204.67-16.7 204.67-14.35 193.27-14.35 193.27-8.55Q193.27-6.8 193.6-5.7 193.92-4.6 194.65-4.08 195.37-3.55 196.52-3.55L196.52-3.55Q197.72-3.55 198.35-4.13 198.97-4.7 199.2-5.78 199.42-6.85 199.42-8.3L199.42-8.3 199.42-10.05 204.62-10.05 204.62-8.95Q204.62-4.6 202.77-2.1 200.92 0.4 196.47 0.4ZM193.27-18.8L193.27-17.25 199.42-17.25 199.42-19.85Q199.42-21.65 199.22-22.88 199.02-24.1 198.4-24.73 197.77-25.35 196.42-25.35L196.42-25.35Q195.12-25.35 194.45-24.75 193.77-24.15 193.52-22.73 193.27-21.3 193.27-18.8L193.27-18.8ZM215.37 0L210.02 0 210.02-40.5 215.37-40.5 215.37 0ZM226.67 0L221.32 0 221.32-28.9 226.67-28.9 226.67 0ZM226.67-33.2L221.32-33.2 221.32-38.8 226.67-38.8 226.67-33.2ZM242.72 0L236.17 0 230.47-28.9 235.87-28.9 239.42-5.65 243.02-28.9 248.22-28.9 242.72 0ZM259.66 0.4L259.66 0.4Q256.26 0.4 254.41-0.93 252.56-2.25 251.84-4.83 251.11-7.4 251.11-11.15L251.11-11.15 251.11-17.75Q251.11-21.6 251.86-24.15 252.61-26.7 254.49-28 256.36-29.3 259.66-29.3L259.66-29.3Q263.31-29.3 265.04-27.8 266.76-26.3 267.31-23.48 267.86-20.65 267.86-16.7L267.86-16.7 267.86-14.35 256.46-14.35 256.46-8.55Q256.46-6.8 256.79-5.7 257.11-4.6 257.84-4.08 258.56-3.55 259.71-3.55L259.71-3.55Q260.91-3.55 261.54-4.13 262.16-4.7 262.39-5.78 262.61-6.85 262.61-8.3L262.61-8.3 262.61-10.05 267.81-10.05 267.81-8.95Q267.81-4.6 265.96-2.1 264.11 0.4 259.66 0.4ZM256.46-18.8L256.46-17.25 262.61-17.25 262.61-19.85Q262.61-21.65 262.41-22.88 262.21-24.1 261.59-24.73 260.96-25.35 259.61-25.35L259.61-25.35Q258.31-25.35 257.64-24.75 256.96-24.15 256.71-22.73 256.46-21.3 256.46-18.8L256.46-18.8ZM278.21 0L272.86 0 272.86-28.9 278.21-28.9 278.21-24.8Q279.81-27.45 281.41-28.35 283.01-29.25 284.61-29.25L284.61-29.25Q284.81-29.25 284.99-29.25 285.16-29.25 285.46-29.2L285.46-29.2 285.46-23.3Q284.86-23.55 284.09-23.73 283.31-23.9 282.51-23.9L282.51-23.9Q281.26-23.9 280.24-23.33 279.21-22.75 278.21-21.1L278.21-21.1 278.21 0ZM294.46 0L289.11 0 289.11-28.9 294.46-28.9 294.46 0ZM294.46-33.2L289.11-33.2 289.11-38.8 294.46-38.8 294.46-33.2ZM305.56 0L300.21 0 300.21-28.9 305.56-28.9 305.56-26.05Q307.01-27.4 308.76-28.35 310.51-29.3 312.61-29.3L312.61-29.3Q314.36-29.3 315.28-28.4 316.21-27.5 316.58-26.15 316.96-24.8 316.96-23.4L316.96-23.4 316.96 0 311.61 0 311.61-21.85Q311.61-23.4 311.16-24.25 310.71-25.1 309.31-25.1L309.31-25.1Q308.41-25.1 307.43-24.58 306.46-24.05 305.56-23.3L305.56-23.3 305.56 0ZM329.65 8.95L329.65 8.95Q327.06 8.95 324.95 8.4 322.85 7.85 321.65 6.65 320.45 5.45 320.45 3.5L320.45 3.5Q320.45 2.1 321.06 1.05 321.65 0 322.6-0.78 323.56-1.55 324.6-2.05L324.6-2.05Q323.2-2.45 322.5-3.33 321.81-4.2 321.81-5.15L321.81-5.15Q321.81-6.75 322.65-7.9 323.5-9.05 325-10.4L325-10.4Q323.35-11.65 322.5-13.6 321.65-15.55 321.65-19L321.65-19Q321.65-22.4 322.58-24.68 323.5-26.95 325.33-28.13 327.15-29.3 329.81-29.3L329.81-29.3Q332.15-29.3 333.58-28.5 335-27.7 335.75-26.1L335.75-26.1Q336-26.5 337.1-27.48 338.2-28.45 339.65-29.1L339.65-29.1 340.45-29.45 341.81-26Q341.15-25.9 340.08-25.53 339-25.15 338.08-24.78 337.15-24.4 336.9-24.15L336.9-24.15Q337.25-23.3 337.53-21.7 337.81-20.1 337.81-18.85L337.81-18.85Q337.81-15.9 337.06-13.65 336.31-11.4 334.58-10.13 332.85-8.85 329.81-8.85L329.81-8.85Q329.15-8.85 328.4-8.95 327.65-9.05 327.06-9.2L327.06-9.2Q326.75-8.75 326.43-8.15 326.1-7.55 326.1-7L326.1-7Q326.1-6.45 326.68-6.13 327.25-5.8 328.5-5.7L328.5-5.7 333-5.3Q336.4-5 338.06-3.25 339.7-1.5 339.7 1.75L339.7 1.75Q339.7 4.1 338.6 5.73 337.5 7.35 335.28 8.15 333.06 8.95 329.65 8.95ZM330.06 4.75L330.06 4.75Q332.9 4.75 334.25 4.08 335.6 3.4 335.6 1.9L335.6 1.9Q335.6 1 335.28 0.4 334.95-0.2 334.1-0.55 333.25-0.9 331.65-1.05L331.65-1.05 327.1-1.45Q326.56-0.9 326.06-0.35 325.56 0.2 325.25 0.83 324.95 1.45 324.95 2.15L324.95 2.15Q324.95 3.45 326.06 4.1 327.15 4.75 330.06 4.75ZM329.81-12.6L329.81-12.6Q330.95-12.6 331.63-13.03 332.31-13.45 332.65-14.28 333-15.1 333.13-16.3 333.25-17.5 333.25-19L333.25-19Q333.25-20.5 333.13-21.73 333-22.95 332.68-23.83 332.35-24.7 331.68-25.15 331-25.6 329.85-25.6L329.85-25.6Q328.75-25.6 328.03-25.15 327.31-24.7 326.95-23.88 326.6-23.05 326.45-21.83 326.31-20.6 326.31-19L326.31-19Q326.31-17.65 326.43-16.48 326.56-15.3 326.93-14.45 327.31-13.6 328-13.1 328.7-12.6 329.81-12.6ZM362.4 0L357.05 0 357.05-24.95 353.6-24.95 353.6-28.9 357.05-28.9 357.05-30.4Q357.05-33.1 357.47-35.02 357.9-36.95 359.25-38 360.6-39.05 363.3-39.05L363.3-39.05Q364.3-39.05 365.07-38.98 365.85-38.9 366.8-38.7L366.8-38.7 366.8-34.8Q366.35-34.9 365.8-34.98 365.25-35.05 364.8-35.05L364.8-35.05Q363.25-35.05 362.82-34.02 362.4-33 362.4-31.3L362.4-31.3 362.4-28.9 366.8-28.9 366.8-24.95 362.4-24.95 362.4 0ZM375.55 0L370.2 0 370.2-40.5 375.55-40.5 375.55 0ZM386.34 0.4L386.34 0.4Q384.64 0.4 383.34-0.58 382.05-1.55 381.3-3.08 380.55-4.6 380.55-6.3L380.55-6.3Q380.55-9 381.44-10.85 382.34-12.7 383.92-13.98 385.5-15.25 387.57-16.2 389.64-17.15 391.94-18.05L391.94-18.05 391.94-20.1Q391.94-21.85 391.75-23 391.55-24.15 390.92-24.73 390.3-25.3 389.05-25.3L389.05-25.3Q387.94-25.3 387.27-24.8 386.59-24.3 386.3-23.38 386-22.45 386-21.2L386-21.2 386-19.75 380.69-19.95Q380.8-24.75 382.89-27.03 385-29.3 389.39-29.3L389.39-29.3Q393.69-29.3 395.5-26.95 397.3-24.6 397.3-20.15L397.3-20.15 397.3-6.95Q397.3-5.6 397.37-4.35 397.44-3.1 397.57-2.02 397.69-0.95 397.8 0L397.8 0 392.89 0Q392.75-0.8 392.52-2.02 392.3-3.25 392.19-4.25L392.19-4.25Q391.69-2.55 390.27-1.07 388.84 0.4 386.34 0.4ZM388.44-4.2L388.44-4.2Q389.25-4.2 389.94-4.65 390.64-5.1 391.19-5.68 391.75-6.25 391.94-6.6L391.94-6.6 391.94-14.8Q390.69-14.1 389.59-13.4 388.5-12.7 387.67-11.93 386.84-11.15 386.37-10.18 385.89-9.2 385.89-7.95L385.89-7.95Q385.89-6.2 386.55-5.2 387.19-4.2 388.44-4.2ZM412.74 0L406.19 0 400.49-28.9 405.89-28.9 409.44-5.65 413.04-28.9 418.24-28.9 412.74 0ZM429.64 0.4L429.64 0.4Q426.44 0.4 424.59-0.9 422.74-2.2 421.97-4.6 421.19-7 421.19-10.25L421.19-10.25 421.19-18.65Q421.19-21.9 421.97-24.3 422.74-26.7 424.59-28 426.44-29.3 429.64-29.3L429.64-29.3Q432.84-29.3 434.67-28 436.49-26.7 437.26-24.3 438.04-21.9 438.04-18.65L438.04-18.65 438.04-10.25Q438.04-7 437.26-4.6 436.49-2.2 434.67-0.9 432.84 0.4 429.64 0.4ZM429.64-3.55L429.64-3.55Q431.19-3.55 431.81-4.45 432.44-5.35 432.56-6.83 432.69-8.3 432.69-9.9L432.69-9.9 432.69-18.95Q432.69-20.6 432.56-22.05 432.44-23.5 431.81-24.43 431.19-25.35 429.64-25.35L429.64-25.35Q428.09-25.35 427.44-24.43 426.79-23.5 426.67-22.05 426.54-20.6 426.54-18.95L426.54-18.95 426.54-9.9Q426.54-8.3 426.67-6.83 426.79-5.35 427.44-4.45 428.09-3.55 429.64-3.55ZM448.44 0L443.09 0 443.09-28.9 448.44-28.9 448.44-24.8Q450.04-27.45 451.64-28.35 453.24-29.25 454.84-29.25L454.84-29.25Q455.04-29.25 455.21-29.25 455.39-29.25 455.69-29.2L455.69-29.2 455.69-23.3Q455.09-23.55 454.31-23.73 453.54-23.9 452.74-23.9L452.74-23.9Q451.49-23.9 450.46-23.33 449.44-22.75 448.44-21.1L448.44-21.1 448.44 0ZM466.04 0L460.69 0 460.69-24.95 457.24-24.95 457.24-28.9 460.69-28.9 460.69-30.4Q460.69-33.1 461.11-35.02 461.54-36.95 462.89-38 464.24-39.05 466.94-39.05L466.94-39.05Q467.94-39.05 468.71-38.98 469.49-38.9 470.44-38.7L470.44-38.7 470.44-34.8Q469.99-34.9 469.44-34.98 468.89-35.05 468.44-35.05L468.44-35.05Q466.89-35.05 466.46-34.02 466.04-33 466.04-31.3L466.04-31.3 466.04-28.9 470.44-28.9 470.44-24.95 466.04-24.95 466.04 0ZM477.48 0.4L477.48 0.4Q475.78 0.4 474.83-0.5 473.88-1.4 473.51-2.75 473.13-4.1 473.13-5.5L473.13-5.5 473.13-28.9 478.48-28.9 478.48-7.1Q478.48-5.55 478.93-4.67 479.38-3.8 480.78-3.8L480.78-3.8Q481.68-3.8 482.66-4.33 483.63-4.85 484.53-5.6L484.53-5.6 484.53-28.9 489.88-28.9 489.88 0 484.53 0 484.53-2.85Q483.13-1.5 481.36-0.55 479.58 0.4 477.48 0.4ZM501.18 0L495.83 0 495.83-40.5 501.18-40.5 501.18 0ZM524.92 0.4L524.92 0.4Q521.27 0.4 519.48-2.27 517.67-4.95 517.67-11.35L517.67-11.35 517.67-16.95Q517.67-20.25 518.23-23.08 518.77-25.9 520.3-27.6 521.82-29.3 524.77-29.3L524.77-29.3Q526.23-29.3 527.42-28.65 528.63-28 529.57-27.05L529.57-27.05 529.57-40.5 534.92-40.5 534.92 0 529.57 0 529.57-1.85Q528.63-0.85 527.5-0.23 526.38 0.4 524.92 0.4ZM526.27-3.8L526.27-3.8Q527.02-3.8 527.88-4.08 528.73-4.35 529.57-4.9L529.57-4.9 529.57-23.85Q528.88-24.35 528.02-24.73 527.17-25.1 526.17-25.1L526.17-25.1Q524.32-25.1 523.67-23.33 523.02-21.55 523.02-19.05L523.02-19.05 523.02-10.9Q523.02-8.9 523.25-7.28 523.48-5.65 524.17-4.73 524.88-3.8 526.27-3.8ZM546.02 0L540.67 0 540.67-28.9 546.02-28.9 546.02 0ZM546.02-33.2L540.67-33.2 540.67-38.8 546.02-38.8 546.02-33.2ZM558.47 0.4L558.47 0.4Q554.92 0.4 552.77-1.83 550.62-4.05 550.32-7.7L550.32-7.7 554.77-9.05Q555.17-6.3 556.12-4.93 557.07-3.55 558.92-3.55L558.92-3.55Q560.37-3.55 561.12-4.38 561.87-5.2 561.87-6.6L561.87-6.6Q561.87-7.85 561.32-8.85 560.77-9.85 559.52-10.9L559.52-10.9 554.57-15.15Q553.07-16.45 552.04-18.05 551.02-19.65 551.02-22.2L551.02-22.2Q551.02-24.5 551.94-26.08 552.87-27.65 554.54-28.48 556.22-29.3 558.47-29.3L558.47-29.3Q561.92-29.3 563.74-27.08 565.57-24.85 565.82-21.7L565.82-21.7 562.22-20.35Q562.02-21.85 561.62-22.98 561.22-24.1 560.52-24.73 559.82-25.35 558.67-25.35L558.67-25.35Q557.37-25.35 556.59-24.48 555.82-23.6 555.82-22.4L555.82-22.4Q555.82-21.65 556.14-20.93 556.47-20.2 557.27-19.5L557.27-19.5 562.37-14.8Q563.42-13.85 564.34-12.75 565.27-11.65 565.87-10.25 566.47-8.85 566.47-7L566.47-7Q566.47-4.55 565.47-2.9 564.47-1.25 562.67-0.43 560.87 0.4 558.47 0.4ZM575.97 0L570.62 0 570.62-40.5 575.97-40.5 575.97-25.9Q577.42-27.3 579.22-28.3 581.02-29.3 583.22-29.3L583.22-29.3Q584.92-29.3 585.84-28.4 586.77-27.5 587.14-26.15 587.52-24.8 587.52-23.4L587.52-23.4 587.52 0 582.17 0 582.17-21.85Q582.17-23.4 581.72-24.25 581.27-25.1 579.87-25.1L579.87-25.1Q578.92-25.1 577.89-24.55 576.87-24 575.97-23.2L575.97-23.2 575.97 0ZM600.71 0.4L600.71 0.4Q597.31 0.4 595.46-0.93 593.61-2.25 592.89-4.83 592.16-7.4 592.16-11.15L592.16-11.15 592.16-17.75Q592.16-21.6 592.91-24.15 593.66-26.7 595.54-28 597.41-29.3 600.71-29.3L600.71-29.3Q604.36-29.3 606.09-27.8 607.81-26.3 608.36-23.48 608.91-20.65 608.91-16.7L608.91-16.7 608.91-14.35 597.51-14.35 597.51-8.55Q597.51-6.8 597.84-5.7 598.16-4.6 598.89-4.08 599.61-3.55 600.76-3.55L600.76-3.55Q601.96-3.55 602.59-4.13 603.21-4.7 603.44-5.78 603.66-6.85 603.66-8.3L603.66-8.3 603.66-10.05 608.86-10.05 608.86-8.95Q608.86-4.6 607.01-2.1 605.16 0.4 600.71 0.4ZM597.51-18.8L597.51-17.25 603.66-17.25 603.66-19.85Q603.66-21.65 603.46-22.88 603.26-24.1 602.64-24.73 602.01-25.35 600.66-25.35L600.66-25.35Q599.36-25.35 598.69-24.75 598.01-24.15 597.76-22.73 597.51-21.3 597.51-18.8L597.51-18.8ZM620.46 0.4L620.46 0.4Q616.91 0.4 614.76-1.83 612.61-4.05 612.31-7.7L612.31-7.7 616.76-9.05Q617.16-6.3 618.11-4.93 619.06-3.55 620.91-3.55L620.91-3.55Q622.36-3.55 623.11-4.38 623.86-5.2 623.86-6.6L623.86-6.6Q623.86-7.85 623.31-8.85 622.76-9.85 621.51-10.9L621.51-10.9 616.56-15.15Q615.06-16.45 614.04-18.05 613.01-19.65 613.01-22.2L613.01-22.2Q613.01-24.5 613.94-26.08 614.86-27.65 616.54-28.48 618.21-29.3 620.46-29.3L620.46-29.3Q623.91-29.3 625.74-27.08 627.56-24.85 627.81-21.7L627.81-21.7 624.21-20.35Q624.01-21.85 623.61-22.98 623.21-24.1 622.51-24.73 621.81-25.35 620.66-25.35L620.66-25.35Q619.36-25.35 618.59-24.48 617.81-23.6 617.81-22.4L617.81-22.4Q617.81-21.65 618.14-20.93 618.46-20.2 619.26-19.5L619.26-19.5 624.36-14.8Q625.41-13.85 626.34-12.75 627.26-11.65 627.86-10.25 628.46-8.85 628.46-7L628.46-7Q628.46-4.55 627.46-2.9 626.46-1.25 624.66-0.43 622.86 0.4 620.46 0.4Z" opacity="1" transform="matrix(1,0,0,1,0,0)" fill="#ffffff" class="slogan-text-1" data-fill-palette-color="secondary" id="text-1"></path></svg></g></svg></g></svg></g></svg></g><g transform="matrix(1,0,0,1,0,22.717986080122287)"><svg viewBox="0 0 143.9619881892189 179.95998356917235" height="179.95998356917235" width="143.9619881892189"><g><svg xmlns="http://www.w3.org/2000/svg" xmlns:xlink="http://www.w3.org/1999/xlink" version="1.1" x="0" y="0" viewBox="14.002 5 71.997 90" enable-background="new 0 0 100 100" xml:space="preserve" height="179.95998356917235" width="143.9619881892189" class="icon-icon-0" data-fill-palette-color="accent" id="icon-0"><g fill="#f3a83c" data-fill-palette-color="accent"><path fill="#ffffff" d="M50.001 32h-9V5h-9v27h-9L22.997 5h-8.995v36c0 4.97 4.027 9 9 9h9v45h9V50h9c4.97 0 9-4.03 9-9V5h-9.004L50.001 32z" data-fill-palette-color="accent"></path><path fill="#ffffff" d="M82.252 5c-8.815 0-14.44 21-14.44 44.062 0 19.193 6.88 19.426 9.187 18.965V95h9V9.125C85.999 5.563 82.252 5 82.252 5" data-fill-palette-color="accent"></path></g></svg></g></svg></g></svg></g><defs></defs></svg><rect width="365.3199145460146" height="200" fill="none" stroke="none" visibility="hidden"></rect></g></svg></g></svg>